PathFileType	4	(X/Y/Z)	C:/Users/opensim2020/Desktop/walking_exp_matlab/subject03_walking10_straight_02.trc																																																																																																																																					
DataRate	CameraRate	NumFrames	NumMarkers	Units	OrigDataRate	OrigDataStartFrame	OrigNumFrames																																																																																																																																	
100	100	4	45	mm	100	2118	347																																																																																																																																	
Frame#	Time	LFHD			RFHD			LBHD			RBHD			C7			T10			CLAV			STRN			RBAK			LSHO			LUPA			LELB			LFRM			LWRA			LWRB			LFIN			RSHO			RUPA			RELB			RFRM			RWRA			RWRB			RFIN			LASI			RASI			LPSI			RPSI			LTHI			LKNE			LTIB			LANK			LHEE			LTOE			RTHI			RKNE			RTIB			RANK			RHEE			RTOE			*39			*40			*41			*42			*43			*44		
		X1	Y1	Z1	X2	Y2	Z2	X3	Y3	Z3	X4	Y4	Z4	X5	Y5	Z5	X6	Y6	Z6	X7	Y7	Z7	X8	Y8	Z8	X9	Y9	Z9	X10	Y10	Z10	X11	Y11	Z11	X12	Y12	Z12	X13	Y13	Z13	X14	Y14	Z14	X15	Y15	Z15	X16	Y16	Z16	X17	Y17	Z17	X18	Y18	Z18	X19	Y19	Z19	X20	Y20	Z20	X21	Y21	Z21	X22	Y22	Z22	X23	Y23	Z23	X24	Y24	Z24	X25	Y25	Z25	X26	Y26	Z26	X27	Y27	Z27	X28	Y28	Z28	X29	Y29	Z29	X30	Y30	Z30	X31	Y31	Z31	X32	Y32	Z32	X33	Y33	Z33	X34	Y34	Z34	X35	Y35	Z35	X36	Y36	Z36	X37	Y37	Z37	X38	Y38	Z38	X39	Y39	Z39	X40	Y40	Z40	X41	Y41	Z41	X42	Y42	Z42	X43	Y43	Z43	X44	Y44	Z44	X45	Y45	Z45
																																																																																																																																								
304	3.03	968.09448	1610.67224	964.2431	973.76068	1614.45142	1097.18567	847.60211	1548.22717	976.28882	859.15826	1552.92969	1106.24048	832.79919	1400.84167	1037.90576	795.60834	1088.79895	1035.50403	954.06458	1324.58228	1024.41699	992.7713	1158.08923	1015.96631	789.71173	1228.42078	1140.99915	891.90326	1361.37439	873.95123	859.36011	1164.57385	806.62671	855.53259	1041.06897	793.9837	885.8399	914.54602	790.01691	919.07831	800.02722	817.32153	883.00391	800.81903	774.23907	907.67096	719.54498	782.05908	929.90204	1347.70471	1187.80176	976.63116	1131.89844	1257.22253	1019.86163	1027.32739	1265.22339	1071.5238	900.46191	1259.47974	1117.34497	816.66309	1214.58545	1098.48987	803.89337	1263.95886	1139.20288	743.24023	1247.73132	957.70892	917.28162	913.48059	965.77045	928.53723	1151.94226	797.15521	940.11493	967.82452	804.56061	961.37555	1116.12927	960.53253	616.18781	871.07141	1040.65076	459.4783	914.28918	1062.94604	271.99353	914.71594	1139.38733	73.45453	943.495	1122.75745	30.0847	989.42932	1291.52515	82.33485	931.00446	878.79742	638.5462	1189.94177	858.17511	459.23447	1151.12927	771.34796	285.34244	1149.76782	696.9046	82.04707	1093.54651	646.61908	59.851	1042.87378	831.95752	28.93586	1071.69446	880.92511	1657.93237	1020.3916	NaN	NaN	NaN	NaN	NaN	NaN	NaN	NaN	NaN	NaN	NaN	NaN	NaN	NaN	NaN
305	3.04	974.35248	1610.15735	963.11017	979.88422	1614.04529	1096.07349	853.97662	1547.47144	975.0589	865.41559	1552.33374	1105.0907	839.41833	1400.18848	1036.41846	802.75647	1087.98914	1033.62976	960.92755	1324.08484	1023.56842	999.85052	1157.6051	1015.47552	795.86005	1227.77979	1139.48242	899.43384	1360.74536	872.81549	867.32379	1163.54565	805.94995	863.57092	1040.00916	793.84296	892.74207	913.07458	790.57843	924.58844	798.26654	818.66077	888.96826	799.35895	774.98785	912.4137	717.66296	783.83435	935.71448	1347.11023	1186.85974	982.25958	1131.29883	1256.23535	1025.25854	1026.53113	1264.02637	1076.7821	899.62439	1258.26599	1122.53577	815.71454	1213.32007	1103.63171	803.01947	1262.63916	1144.32776	742.35858	1246.39514	965.41113	916.35919	913.22516	971.80865	927.94922	1151.71204	804.5827	939.59833	966.2533	810.88086	960.91394	1114.61426	967.64032	615.2074	871.88129	1047.00818	458.30768	915.09583	1069.93945	271.24872	915.34637	1146.67944	72.83592	944.37958	1130.01331	29.57796	990.69855	1298.51416	81.43953	931.30823	883.31824	638.05383	1189.33582	862.15417	458.93021	1151.31323	773.70612	285.72852	1149.8844	697.47223	82.9559	1093.70068	647.04352	61.23845	1042.94751	832.08844	28.85289	1071.88245	886.82233	1657.50781	1019.48816	NaN	NaN	NaN	NaN	NaN	NaN	NaN	NaN	NaN	NaN	NaN	NaN	NaN	NaN	NaN
306	3.05	980.72937	1609.7616	961.87134	986.01514	1613.70044	1094.8595	860.46899	1546.74744	973.79584	871.66437	1551.77832	1103.86255	846.10321	1399.52881	1034.82568	809.71283	1087.40552	1032.29663	967.85352	1323.62378	1022.68658	1007.03729	1157.1543	1014.95276	802.2948	1227.12549	1137.58069	907.15778	1360.04553	871.50659	875.40857	1162.59912	805.15918	871.59467	1038.86462	793.5816	899.84399	911.74493	791.06787	930.21942	796.59515	819.85596	895.09448	797.88617	775.88641	917.1651	715.77393	785.41443	941.68732	1346.69958	1185.91064	987.75549	1130.65381	1255.1272	1030.50952	1025.78857	1262.88916	1081.83752	898.7937	1257.10535	1127.63086	814.8974	1212.12305	1108.45825	802.15869	1261.49512	1149.08228	741.37592	1245.11096	973.25134	915.43219	913.01001	977.95752	927.38873	1151.47107	812.21307	939.04224	964.49414	817.32941	960.45984	1113.00879	975.05896	614.43707	872.35272	1053.9834	457.46823	915.495	1076.28369	270.3024	915.8905	1152.11938	71.59952	945.67572	1135.34253	28.63347	992.03644	1304.0918	79.82434	932.33075	887.86218	637.81207	1189.05481	866.15613	458.64636	1151.48999	776.09338	286.17123	1149.9563	698.0506	83.97785	1093.78271	647.5188	62.71742	1042.90649	832.20166	28.80379	1072.02991	892.98743	1656.89539	1018.15521	NaN	NaN	NaN	NaN	NaN	NaN	NaN	NaN	NaN	NaN	NaN	NaN	NaN	NaN	NaN
307	3.06	987.01508	1609.2843	960.70172	992.2113	1613.43433	1093.68005	866.94287	1546.1189	972.45514	877.98578	1551.26599	1102.51514	852.92352	1398.94263	1033.29785	817.15723	1086.71851	1030.37927	974.89276	1323.25024	1021.77625	1014.32098	1156.78027	1014.42871	808.71008	1226.5686	1135.74927	914.92633	1359.43884	870.22058	883.76166	1161.76331	804.26697	879.59515	1037.86121	793.2644	907.06909	910.44873	791.42163	935.94238	795.03717	820.84283	901.41455	796.6947	776.25146	922.07623	714.10529	786.74304	947.74878	1346.33459	1184.8772	993.18842	1130.05127	1254.00146	1035.68542	1025.04773	1261.75635	1086.69543	897.9411	1255.94177	1132.55591	814.05548	1210.99976	1113.10132	801.14655	1260.11401	1153.69812	740.46881	1244.01904	981.58868	914.78943	912.6593	984.25201	926.81647	1151.25586	819.96613	938.75702	962.86987	823.95392	960.0451	1111.44531	982.91693	613.97717	872.44916	1061.37805	456.82001	915.60706	1081.96191	269.16171	916.38861	1156.28003	70.07954	946.73907	1139.0647	27.13543	993.24847	1308.27747	77.36626	933.95227	892.58026	637.57806	1188.69299	870.26031	458.37979	1151.62561	778.49188	286.66412	1150.01282	698.68573	85.07822	1093.7738	648.00287	64.30057	1042.91736	832.38617	28.68491	1072.1615	899.32965	1656.31262	1016.49615	NaN	NaN	NaN	NaN	NaN	NaN	NaN	NaN	NaN	NaN	NaN	NaN	NaN	NaN	NaN
